<?xml version="1.0" ?><!DOCTYPE svg  PUBLIC '-//W3C//DTD SVG 1.1//EN'  'http://www.w3.org/Graphics/SVG/1.1/DTD/svg11.dtd'><svg height="512px" id="Слой_1" style="enable-background:new 0 0 512 512;" version="1.1" viewBox="0 0 512 512" width="512px" xml:space="preserve" xmlns="http://www.w3.org/2000/svg" xmlns:xlink="http://www.w3.org/1999/xlink"><g id="instagram_1_"><g><path d="M456,6H56C28.383,6,6,28.383,6,56v400    c0,27.607,22.383,50,50,50h400c27.618,0,50-22.393,50-50V56C506,28.383,483.618,6,456,6z M476,426c0,27.607-22.382,50-50,50H86    c-27.617,0-50-22.393-50-50V206h20V36h20v170h20V36h20v150.273c6.084-7.617,12.803-14.687,20-21.25V36h20v113.125    c29.668-20.401,65.528-32.403,104.268-32.403c67.08,0,125.654,35.83,158.096,89.278H476V426z M476,86c0,16.562-13.437,30-30,30    h-52.5c-16.572,0-30-13.438-30-30V66c0-16.573,13.428-30,30-30H446c16.563,0,30,13.427,30,30V86z M258.998,221.996    c-43.623,0-78.994,35.371-78.994,79.004c0,43.623,35.371,78.994,78.994,78.994s78.995-35.371,78.995-78.994    C337.993,257.367,302.621,221.996,258.998,221.996z M259.008,153.002c-80.635,0-145.996,65.371-145.996,145.996    c0,80.635,65.361,145.996,145.996,145.996c80.625,0,145.987-65.361,145.987-145.996    C404.995,218.373,339.633,153.002,259.008,153.002z M259.008,408.91c-60.693,0-109.902-49.209-109.902-109.902    c0-60.704,49.209-109.913,109.902-109.913c60.703,0,109.903,49.209,109.903,109.913    C368.911,359.701,319.711,408.91,259.008,408.91z" style="fill-rule:evenodd;clip-rule:evenodd;fill:#3B3A39;"/></g></g></svg>