<svg xmlns="http://www.w3.org/2000/svg" width="32" height="32" viewBox="0 0 32 32" preserveAspectRatio="xMidYMid"><path d="M0 27.88A4.12 4.12 0 0 0 4.12 32h23.71a4.12 4.12 0 0 0 4.119-4.12V4.17a4.12 4.12 0 0 0-4.12-4.119H4.12A4.12 4.12 0 0 0 0 4.171v23.71z" fill="#563d7c"/><path d="M13.248 14.183V9.66h3.983c.38 0 .745.032 1.097.095s.664.176.935.338c.27.163.488.389.65.678.163.289.244.659.244 1.11 0 .813-.244 1.4-.731 1.761-.488.362-1.111.542-1.87.542h-4.308zm-4.253-7.83v19.345h9.374c.867 0 1.711-.109 2.533-.326a6.774 6.774 0 0 0 2.195-1.002 4.937 4.937 0 0 0 1.53-1.747c.38-.714.57-1.558.57-2.534 0-1.21-.294-2.244-.881-3.102-.587-.858-1.477-1.458-2.669-1.801.867-.416 1.522-.948 1.964-1.599.443-.65.664-1.463.664-2.438 0-.903-.149-1.662-.447-2.276a3.717 3.717 0 0 0-1.26-1.476c-.542-.37-1.192-.637-1.95-.8a12.047 12.047 0 0 0-2.52-.243H8.995zm4.253 16.04v-5.31h4.633c.921 0 1.662.211 2.222.636.56.424.84 1.133.84 2.127 0 .505-.086.92-.258 1.246a2.045 2.045 0 0 1-.69.772c-.29.19-.624.325-1.003.406-.38.082-.777.122-1.192.122h-4.552z" fill="#fff"/></svg>