<svg xmlns="http://www.w3.org/2000/svg" width="32" height="32" viewBox="0 0 32 32" preserveAspectRatio="xMidYMid"><defs><linearGradient x1="127.47" y1="82.259" x2="127.47" y2="173.666" id="a" gradientUnits="userSpaceOnUse"><stop stop-color="#86BBE5" offset="0%"/><stop stop-color="#1072BA" offset="100%"/></linearGradient></defs><path d="M16.033.383s9.222-.414 14.11 8.855H15.25s-2.811-.09-5.213 3.32c-.69 1.431-1.431 2.906-.599 5.812C8.24 16.339 3.074 7.346 3.074 7.346S6.717.75 16.034.383z" fill="#ef3f36"/><path d="M29.665 23.914s-4.255 8.195-14.723 7.79c1.294-2.237 7.45-12.899 7.45-12.899s1.488-2.388-.267-6.174c-.892-1.315-1.802-2.69-4.734-3.423 2.358-.021 12.727 0 12.727 0s3.884 6.454-.453 14.706z" fill="#fcd900"/><path d="M2.466 23.978s-4.971-7.781.616-16.645c1.29 2.237 7.446 12.899 7.446 12.899s1.328 2.483 5.48 2.854c1.582-.116 3.228-.216 5.332-2.384-1.16 2.052-6.363 11.02-6.363 11.02s-7.536.137-12.511-7.744z" fill="#61bc5b"/><path d="M14.938 31.782l2.095-8.743s2.303-.181 4.234-2.298c-1.198 2.108-6.329 11.04-6.329 11.04z" fill="#5ab055"/><path d="M9.015 16.18a6.98 6.98 0 1 1 13.96.001 6.98 6.98 0 0 1-13.96-.002z" fill="#fff"/><path d="M80.004 129.056c0-26.198 21.234-47.467 47.468-47.467 26.198 0 47.467 21.234 47.467 47.467 0 26.199-21.233 47.468-47.467 47.468-26.199 0-47.468-21.269-47.468-47.468z" fill="url(#a)" transform="translate(.388 .379) scale(.12243)"/><path d="M30.113 9.213l-8.626 2.53s-1.302-1.91-4.1-2.53c2.427-.013 12.726 0 12.726 0z" fill="#eaca05"/><path d="M9.269 18.05C8.058 15.95 3.074 7.346 3.074 7.346l6.389 6.32s-.655 1.35-.41 3.28l.216 1.104z" fill="#df3a32"/></svg>