<svg viewBox="0 0 512 512" xmlns="http://www.w3.org/2000/svg"><g fill="#6A6E7C"><path d="M361.9 401.4c-2.8 0-5.5-1.1-7.6-3.2-4-4.2-3.9-10.9.3-14.9l139.6-134.9c4.2-4 10.9-3.9 14.9.3s3.9 10.9-.3 14.9L369.2 398.5c-2.1 1.9-4.7 2.9-7.3 2.9z"/><path d="M501.5 266.5c-2.6 0-5.3-1-7.3-3L354.5 128.7c-4.2-4-4.3-10.7-.3-14.9 4-4.2 10.7-4.3 14.9-.3l139.6 134.9c4.2 4 4.3 10.7.3 14.9-2 2.2-4.8 3.2-7.5 3.2zM150.1 401.4c-2.6 0-5.3-1-7.3-3L3.2 263.6c-4.2-4-4.3-10.7-.3-14.9 4-4.2 10.7-4.3 14.9-.3l139.6 134.9c4.2 4 4.3 10.7.3 14.9-2.1 2.2-4.8 3.2-7.6 3.2z"/><path d="M10.5 266.5c-2.8 0-5.5-1.1-7.6-3.2-4-4.2-3.9-10.9.3-14.9l139.6-134.9c4.2-4 10.9-3.9 14.9.3s3.9 10.9-.3 14.9L17.9 263.6c-2.1 2-4.7 2.9-7.4 2.9zM205.8 446.1c-.9 0-1.9-.1-2.8-.4-5.6-1.6-8.9-7.4-7.3-13L296 73.6c1.6-5.6 7.4-8.9 13-7.3 5.6 1.6 8.9 7.4 7.3 13L216 438.4c-1.3 4.7-5.6 7.7-10.2 7.7z"/></g></svg>