<svg xmlns="http://www.w3.org/2000/svg" viewBox="0 0 32 32"><g fill="#6a6e7c"><path d="M22.42 25.237a.64.64 0 0 1-.46-.198.663.663 0 0 1 .018-.92l8.451-8.339a.63.63 0 0 1 .902.019.663.663 0 0 1-.018.92l-8.451 8.339a.653.653 0 0 1-.442.179z"/><path d="M30.871 16.899a.622.622 0 0 1-.442-.185l-8.457-8.332a.663.663 0 0 1-.018-.921.63.63 0 0 1 .902-.019l8.451 8.338c.254.248.26.662.018.921a.604.604 0 0 1-.454.198zM9.597 25.237a.622.622 0 0 1-.442-.185L.704 16.72a.663.663 0 0 1-.018-.921.63.63 0 0 1 .902-.019l8.451 8.338c.254.248.26.662.018.921a.616.616 0 0 1-.46.198z"/><path d="M1.146 16.899a.64.64 0 0 1-.46-.198.663.663 0 0 1 .018-.92l8.451-8.339a.63.63 0 0 1 .902.019.663.663 0 0 1-.018.92L1.594 16.72a.629.629 0 0 1-.448.179zM12.97 28a.653.653 0 0 1-.611-.828l6.071-22.196a.637.637 0 0 1 .787-.451.653.653 0 0 1 .442.803l-6.072 22.196a.641.641 0 0 1-.618.476z"/></g></svg>