<svg xmlns="http://www.w3.org/2000/svg" width="32" height="32" viewBox="0 0 32 32" preserveAspectRatio="xMidYMid"><path d="M31.976 10.883c-.007-.038-.014-.077-.024-.115l-.022-.067a1.377 1.377 0 0 0-.035-.1l-.03-.067a1.218 1.218 0 0 0-.048-.09c-.012-.023-.026-.044-.039-.065a1.38 1.38 0 0 0-.173-.217l-.055-.054a1.134 1.134 0 0 0-.078-.065c-.021-.016-.041-.032-.063-.047-.008-.005-.014-.012-.023-.017L16.762.229a1.374 1.374 0 0 0-1.525 0L.612 9.979l-.022.017a1.94 1.94 0 0 0-.14.112 1.242 1.242 0 0 0-.228.272 1.2 1.2 0 0 0-.086.154c-.011.022-.023.044-.032.067a1.38 1.38 0 0 0-.035.1l-.022.064c-.01.038-.017.077-.024.116a1.383 1.383 0 0 0-.023.24v9.751c0 .06.004.12.013.18.003.021.009.039.013.06.007.038.013.077.026.116a.912.912 0 0 0 .021.066c.011.035.022.07.035.1.009.022.021.044.03.065a1.704 1.704 0 0 0 .086.155c.019.03.039.056.06.082.015.022.03.039.048.06.022.025.043.051.069.074.017.017.034.039.056.052l.077.065c.021.018.043.03.06.047.009.005.014.013.022.017l14.621 9.755c.231.155.496.233.763.232.267-.002.532-.078.763-.232l14.625-9.75.022-.017a1.65 1.65 0 0 0 .14-.112c.02-.017.038-.035.056-.053a1.234 1.234 0 0 0 .173-.218 1.316 1.316 0 0 0 .086-.155c.01-.022.022-.044.031-.066.014-.033.025-.067.035-.1.008-.023.016-.045.022-.067.01-.038.017-.077.024-.116.004-.02.009-.04.01-.06.009-.059.013-.118.013-.179v-9.75c0-.061-.005-.12-.012-.18-.004-.021-.01-.038-.014-.06h.002zM16 19.25l-4.863-3.252L16 12.745l4.863 3.253L16 19.25zm-1.375-8.894l-5.962 3.987-4.812-3.219 10.774-7.182v6.414zM6.19 15.997l-3.44 2.301v-4.601l3.44 2.3zm2.473 1.656l5.962 3.987v6.414L3.85 20.871l4.812-3.219v.001zm8.712 3.986l5.961-3.987 4.813 3.219-10.774 7.182V21.64zM25.809 16l3.44-2.302v4.602l-3.44-2.302v.001zm-2.473-1.656l-5.961-3.987V3.942l10.774 7.182-4.813 3.22z" fill="#ccc"/></svg>