<svg xmlns="http://www.w3.org/2000/svg" width="32" height="32" viewBox="0 0 32 32" preserveAspectRatio="xMidYMid"><path d="M12.664 4.53c.03.175-.058.32-.348.465-.377-.203-1.19-.32-1.857-.261-.726.058-1.335.29-1.248.783.116.494.812.784 2.06.668 3.047-.261 3.018-2.322 7.488-2.728 3.482-.32 5.427.754 5.688 2.06.203 1.016-.639 2.003-3.163 2.206-2.235.203-3.541-.406-3.657-1.016-.058-.319.116-.783 1.19-.9.116.494.725 1.016 2.176.871 1.045-.087 1.916-.464 1.8-1.045-.116-.609-1.22-.957-2.96-.812-3.541.32-4.412 2.264-7.43 2.525-2.148.203-3.889-.58-4.121-1.742-.087-.435-.087-1.45 2.177-1.654 1.16-.087 2.09.116 2.205.58zM1.346 16.663C.359 17.91-.076 19.36.01 20.782c.087 1.423.783 2.584 1.886 3.483 1.161.9 2.409 1.161 3.831.9.552-.087 1.161-.377 1.712-.551-1.16 0-2.147-.378-3.134-1.161-1.074-.784-1.8-1.887-1.973-3.222-.262-1.248 0-2.409.696-3.424.784-.987 1.8-1.538 3.134-1.713 1.335-.087 2.496.262 3.657 1.074-.261-.377-.638-.638-.987-.986-1.16-.784-2.408-1.161-3.947-.784-1.393.29-2.553 1.016-3.54 2.264zM16.9 9.958c-3.743 0-7.08-.378-9.49-.9-2.583-.638-3.947-1.335-3.947-2.235 0-.377.175-.696.697-1.073-1.625.638-2.496 1.16-2.496 1.973.087.9 1.538 1.8 4.498 2.496 2.786.696 6.356 1.074 10.651 1.074 4.383 0 7.865-.378 10.651-1.074 2.96-.697 4.382-1.625 4.382-2.496 0-.638-.638-1.248-1.799-1.712.261.174.464.464.464.783 0 .9-1.335 1.626-4.034 2.235-2.495.551-5.688.929-9.577.929zm10.68 2.496c-2.786.638-6.355 1.073-10.65 1.073-4.383 0-7.952-.464-10.739-1.073-2.495-.639-3.83-1.335-4.295-2.061.465 3.134 1.538 6.095 2.96 8.706 1.074 1.626 2.148 3.048 3.222 4.586.464.9.783 1.8.987 2.699.696.987 1.712 1.625 2.96 1.973a12.09 12.09 0 0 0 4.76.697h.173c1.626.087 3.338-.174 4.905-.697 1.16-.377 2.148-.986 2.873-1.973h.087c.174-.9.465-1.8.9-2.7 1.074-1.537 2.147-2.96 3.221-4.585 1.422-2.582 2.41-5.543 2.96-8.706-.58.813-1.915 1.51-4.324 2.06z" fill="#3e517e"/></svg>