<svg height="512" viewBox="0 0 512 512" width="512" xmlns="http://www.w3.org/2000/svg"><path d="M507 256c0 138.623-112.377 251-251 251S5 394.623 5 256 117.377 5 256 5s251 112.377 251 251z" fill="none" stroke="#379ad6" stroke-width="10"/><path fill="#379ad6" fill-rule="evenodd" d="M345.373 386.024L366 162.589H146l20.624 223.435 89.375 24.066z"/><path fill="#379ad6" fill-rule="evenodd" d="M328.527 371.475l16.694-190.788h-89.223v210.21l.202.053zM190.723 143.04h33.955v-13.279h-19.403v-13.298h19.403V101.91h-33.955v41.13zm48.466-26.577c4.543 4.543 6.912 6.717 13.483 13.289-3.84 0-13.483.014-13.483.012v13.277h33.958v-13.28l-13.564-13.298h13.564V101.91h-33.958v14.553zm82.088-14.553h-33.96v14.553c4.543 4.543 6.914 6.717 13.485 13.289-3.84 0-13.484.014-13.484.012v13.277h33.96v-13.28l-13.565-13.298h13.564V101.91z"/><path d="M186.102 207.694l4 27.25 69.5-.5-67 28.25 1.75 27h95l-2.25 35.5-30.5 9.25-31-8.5-1.75-21.25h-27.25l3.5 41.75 55.75 16.25 56.75-15.75 7-84.25h-64.25l66.75-28.25 2-27z" fill="#fff"/></svg>