<svg xmlns="http://www.w3.org/2000/svg" height="32" viewBox="0 0 32 32" width="32"><path d="M507 256c0 138.623-112.377 251-251 251S5 394.623 5 256 117.377 5 256 5s251 112.377 251 251z" fill="none" stroke="#379ad6" stroke-width="10" transform="translate(0 -.011) scale(.0625)"/><path fill="#379ad6" fill-rule="evenodd" d="M21.586 24.116l1.289-13.965H9.125l1.289 13.965L16 25.62z"/><path fill="#379ad6" fill-rule="evenodd" d="M20.533 23.206l1.043-11.924H16V24.42l.012.004zM11.92 8.93h2.122V8.1H12.83v-.832h1.212v-.91H11.92V8.93zm3.03-1.662c.283.284.431.42.842.83l-.843.001v.83h2.123v-.83l-.848-.831h.848v-.91h-2.123v.91zm5.13-.91h-2.123v.91c.284.284.432.42.843.83l-.843.001v.83h2.123v-.83l-.848-.831h.848v-.91z"/><path d="M11.631 12.97l.25 1.703 4.344-.031-4.187 1.765.109 1.688h5.937l-.14 2.219-1.906.578-1.938-.532-.11-1.328h-1.702l.218 2.61 3.485 1.015 3.547-.984.437-5.266H15.96l4.172-1.765.125-1.688z" fill="#fff"/></svg>