<svg xmlns="http://www.w3.org/2000/svg" width="32" height="32"><defs><clipPath id="a"><path d="M0 500h500V0H0v500z"/></clipPath></defs><g clip-path="url(#a)" transform="matrix(.08289 0 0 -.08289 -4.654 36.805)"><path d="M439.188 250c0-104.484-84.705-189.188-189.188-189.188-104.487 0-189.188 84.704-189.188 189.188 0 104.487 84.7 189.187 189.188 189.187 104.483 0 189.188-84.7 189.188-189.188" fill="#3c5b9a" fill-rule="evenodd"/><path d="M220.353 192.902c0 17.705-.068 35.41.063 53.113.025 2.985-.819 3.92-3.804 3.797-5.517-.224-11.049.023-16.573-.105-2.237-.056-3.061.564-3.037 2.933.112 11.046.101 22.098.012 33.147-.02 2.125.62 2.824 2.769 2.777 5.648-.13 11.308.158 16.946-.12 3.268-.162 3.944 1 3.876 4.032a557.206 557.206 0 0 0-.013 25.235c.225 10.27 2.981 19.857 9.098 28.206 7.74 10.574 18.745 15.408 31.441 15.975 13.039.58 26.111.258 39.166.398 1.82.021 2.363-.63 2.355-2.399-.058-11.173-.07-22.35.008-33.524.018-1.987-.631-2.595-2.582-2.564-6.279.098-12.558.05-18.834.033-8.357-.026-13.359-4.325-13.883-12.598-.42-6.63-.113-13.303-.267-19.955-.057-2.369 1.351-2.207 2.92-2.205 9.541.015 19.086-.094 28.627.07 2.8.047 3.724-.597 3.404-3.545-1.201-11.102-2.233-22.225-3.184-33.354-.216-2.512-1.363-2.99-3.619-2.953-7.527.116-15.062.08-22.596.032-5.41-.032-4.884.793-4.884-4.725-.026-34.654-.073-69.31.076-103.965.015-3.66-.92-4.568-4.541-4.504-12.93.24-25.867.25-38.798-.005-3.643-.073-4.243 1.164-4.214 4.414.138 17.453.068 34.904.068 52.36" fill="#fefefe" fill-rule="evenodd"/></g></svg>