<svg xmlns="http://www.w3.org/2000/svg" width="32" height="32" viewBox="0 0 32 32" preserveAspectRatio="xMidYMid"><path d="M16.094.56C7.31.56.187 7.681.187 16.466c0 7.028 4.558 12.99 10.878 15.094.795.147 1.087-.345 1.087-.765 0-.38-.015-1.633-.022-2.962-4.425.962-5.359-1.876-5.359-1.876-.723-1.839-1.766-2.328-1.766-2.328-1.443-.987.109-.967.109-.967 1.597.112 2.438 1.64 2.438 1.64 1.419 2.431 3.721 1.728 4.63 1.322.142-1.028.554-1.73 1.009-2.127-3.533-.403-7.247-1.767-7.247-7.861 0-1.737.621-3.156 1.639-4.27-.165-.4-.71-2.018.154-4.21 0 0 1.336-.427 4.375 1.631 1.27-.352 2.63-.53 3.982-.535 1.351.006 2.713.183 3.984.535 3.036-2.058 4.37-1.63 4.37-1.63.866 2.19.321 3.808.156 4.21 1.02 1.113 1.637 2.532 1.637 4.269 0 6.109-3.72 7.454-7.263 7.848.57.494 1.08 1.462 1.08 2.946 0 2.128-.02 3.84-.02 4.365 0 .423.287.919 1.093.763C27.448 29.452 32 23.492 32 16.466 32 7.681 24.878.56 16.094.56zm-9.95 22.659c-.034.079-.159.103-.272.048-.115-.052-.18-.16-.143-.239.035-.08.16-.104.274-.049.116.052.182.16.142.24zm.783.698c-.076.07-.224.038-.325-.073-.104-.111-.123-.26-.046-.33.078-.071.222-.038.326.073.104.112.124.259.045.33zm.537.893c-.098.068-.257.004-.355-.137-.098-.141-.098-.31.002-.379.098-.068.255-.006.355.134.097.143.097.313-.002.382zm.908 1.035c-.087.096-.273.07-.41-.06-.138-.13-.177-.311-.09-.407.089-.097.276-.07.413.06.138.128.18.312.087.407zm1.173.35c-.039.124-.217.18-.398.127-.18-.054-.297-.2-.26-.326.037-.125.216-.184.398-.128.18.054.297.2.26.326zm1.335.147c.005.131-.148.24-.337.243-.19.004-.344-.102-.346-.231 0-.133.149-.24.34-.244.188-.003.343.102.343.232zm1.312-.05c.022.128-.109.26-.297.294-.184.034-.355-.045-.379-.172-.023-.131.111-.262.295-.296.189-.033.357.044.38.174z" fill="#b4b4b4"/></svg>