<svg xmlns="http://www.w3.org/2000/svg" width="32" height="32"><defs><clipPath id="a"><path d="M0 56.69h56.69V0H0v56.69z"/></clipPath></defs><g clip-path="url(#a)" transform="matrix(.73143 0 0 -.73143 -4.172 36.81)"><path d="M49.453 28.45c0-12.08-9.794-21.874-21.875-21.874-12.08 0-21.875 9.794-21.875 21.875 0 12.08 9.794 21.875 21.875 21.875s21.875-9.794 21.875-21.875" fill="#de5c51"/><path d="M31.1 30.044h-3.592l-.01.006.003-.011h-6.14v-3.936h5.563c-.011-.651-.25-1.19-.666-1.694a6.355 6.355 0 1 0-.808 8.898l2.716 2.857a10.256 10.256 0 0 1-6.811 2.579c-5.684 0-10.292-4.608-10.292-10.292s4.608-10.292 10.292-10.292c1.984 0 3.836.56 5.407 1.533 2.932 1.814 4.46 5.058 4.46 8.759 0 .542-.041 1.074-.122 1.593M44.266 30.293H40.12v4.146h-2.791v-4.146h-4.146V27.5h4.146v-4.145h2.791V27.5h4.146v2.792z" fill="#fff"/></g></svg>