<svg xmlns="http://www.w3.org/2000/svg" width="32" height="32" viewBox="-4.725 200.945 32 32"><path d="M1.929 215.072c-.897.422-3.27 2.32-3.726 2.882-.475.563-.615-.316-.123-1.775.386-1.177 1.37-2.777 3.023-4.147.966-.791 3.093-1.933 4.393-2.601.264-.141 3.673-1.582 6.714-2.303.263-.07-.317.44-.405.72-.457 1.337-9.578 7.066-9.578 7.066l-.298.158zM14.775 231.188c.159.949.018 1.02-.966 1.142-.984.123-1.705-.246-1.968-.492-.264-.246-.317-.79-.053-1.283.158-.316.316-.422.404-.808.088-.37.158-.457.229-.598.07-.123.088-.246.105-1.107.018-.861 0-2.478.088-3.163.088-.703 3.128.316 3.128.316s-.72 1.793-.914 2.232c-.193.44-.175 1.283-.175 1.459 0 .175-.07.527-.123.544-.053.018.175.475.07.739-.07.246.158.878.175 1.019zM15.935 204.316c-.105-.667 0-1.986.141-2.196.44-.598 2.76-.668 3.251.035.211.316.194 1.054.159 1.529-.036.474-.159 1.494-.176 1.828-.018.246-2.566.632-3.128-.036-.159-.175-.247-1.16-.247-1.16zM21.102 229.483c1.072.773 1.898.914 2.443 1.195.545.281.404.826-.51.984-.738.141-1.898-.14-2.67-.14-.774 0-2.496.088-2.953-.229-.528-.369-.3-1.054-.3-1.054.141-.387.493-1.248.387-1.95-.105-.704-.246-1.09-.51-1.74-.263-.651-.456-2.25-.21-2.338.246-.088.176 0 .492.07s.668.176 1.353.176c.686 0 1.441-.106 1.705-.158.264-.053.475-.106.387.439-.088.545-.352 1.564-.37 2.355-.017.79-.017 1.705.036 1.863.052.158.44.334.72.527z"/><g fill="#88ce02"><path d="M17.341 206.074c-1.933 1.67-5.676 2.126-11.23 4.27-1.423.545-5.22 2.18-6.133 3.885 3.075-1.775 4.218.667 4.464 3.18.228 2.355 1.406 3.586 4.429 3.515 3.11-.07 4.06 1.74 4.92 3.867 1.67-8.137 4.341-9.719 6.063-11.107 3.656-2.97-.843-8.208-2.513-7.61z"/><path d="M17.341 206.074c-4.64 1.617-9.226 2.021-14.622 5.343-1.282.79-3.989 2.583-4.516 6.01 1.968-2.18 6.52-4.92 12.091-6.66 2.812-.88 4.868-1.46 7.364-2.426-.176-1.125-.176-1.564-.317-2.267z"/></g><path d="M23.264 215.705s-.334 1.142-1.002 1.511c0 0-.492.176-1.476-.369-.281-.158-.492-.703-.475-.879.018-.421.282-.615.282-.615s.281-.474.615-.457c.334.018.896.07 1.072-.088.158-.175 1.02.317.984.897zM16.094 204.65s-.07.897-.194 1.46c-.017.105-.544.157-.931.315.738 2.11 5.184 2.092 5.764 1.055a7.657 7.657 0 0 0-1.107-.598c-.264-.105-.246-.088-.264-.58-.017-.492-.052-1.406-.087-1.652-.036-.246-2.76-.246-3.181 0z"/><path d="M16.27 204.65s0 .51-.053 1.002a4.142 4.142 0 0 1-.07.545c-.018.105.597.527.773 1.459.843 1.88 2.794.949 3.602.052a6.792 6.792 0 0 0-1.265-.668c-.264-.105-.14-.333-.158-.825a19.823 19.823 0 0 0-.123-1.477c-.035-.263-2.285-.334-2.707-.088z" fill="#efefef"/><path d="M16.094 204.65s-.018.317-.07.686c.228.228.527.545.755.738.158.14.545.123.896.123.317 0 .598.035.721-.035.281-.14.685-.492.914-.756a15.206 15.206 0 0 0-.053-.756c-.018-.246-2.742-.246-3.163 0z"/><path d="M17.693 205.986c-.211 0-.457-.017-.65-.053-.088-.017-.176-.07-.246-.105-.123-.088-.247-.193-.387-.299-.281-.21-.299-.334-.299-.386.123-1.108-.035-2.04-.035-2.04s-.123-.474.545-.597a8.636 8.636 0 0 1 1.072-.14s.422 0 1.072.14c.668.123.545.598.545.598s-.158.931-.035 2.039c0 .052-.018.175-.3.386-.245.176-.439.37-.632.404-.193.036-.44.053-.65.053z"/><path d="M17.693 201.909c-1.16 0-1.389.316-1.722.668-.07.087-.018.615.105 1.74h.158s-.105-.317-.088-.686c.018-.369.088-.351.035-.44-.07-.105-.21-.28.106-.456s.808.14 1.406.158c.597-.018 1.107-.334 1.423-.158.317.175.176.351.106.457-.07.105.017.07.035.44.018.368-.088.684-.088.684h.158c.106-1.124.176-1.616.123-1.704-.298-.387-.597-.686-1.757-.703zM23.264 215.757s-.334 1.073-.984 1.442c-.14-.07-.123-.176-.246-.334-.035-.053-.158-.088-.211-.14-.053-.054-.035-.142-.123-.212-.07-.07-.123-.017-.193-.07-.07-.07-.088-.158-.141-.21-.035-.036-.176-.054-.21-.089-.089-.088-.862-.246-.827-.422.07-.263.211-.457.211-.457s.334-.492.668-.474c.334.017.65.088.826-.07.193-.176 1.283.474 1.23 1.036z"/><path d="M20.98 207.99s1.106-.264 1.862.457c.756.738.703 1.651.475 2.214.193.228.545.861.281 1.617 1.16.984.65 2.495-.387 3.497 0 0-.246-.914-1.23-.967.035-.351-.914-.632-.474-1.546-.668-.158-.65-.615-.756-1.178-.088-.562.228-4.094.228-4.094z"/><path d="M20.575 208.482s1.283-.65 2.039.088c.755.738.544 1.546.316 2.108.193.229.65.88.37 1.652-.054.176-.44.176-.722.633.703-.404 1.143-.299 1.301.21.246.792-.299 1.74-.773 2.268 0-.018-.018-.035-.018-.053-.07.264-.158.774-.685 1.336-.264.281-.475.246-.774.176-.351-.088-.474-.246-.966-.51-.281-.158-.123-.351-.123-.51 0-.035.035-.088.088-.158.035-.088.14-.228.299-.386 0 0 .228-.317.562-.3.334.018.685-.052.773-.14 0-.615-.703-.632-.457-1.687.018-.053.106-.14.387-.176-.422-.088-.615-.105-.914-.386a1.297 1.297 0 0 1-.422-.756c-.105-.545-.28-3.41-.28-3.41z" fill="#efefef"/><path d="M16.867 207.374a3.178 3.178 0 0 0-1.687-1.124c-.3-.088-.492.158-.791.334-.088-.053-.475-.229-.685-.106-.211.123-.352.246-.563.334-.105-.053-.387-.053-.615.035-.228.07-.58.229-.914.686-.21.755 3.726.193 3.726.193l1.529-.352z"/><path d="M16.902 207.374c-.562-.193-.474-.843-1.722-.949-.246-.017-.405.176-.58.3.088.087.175.228.228.368-.158-.175-.44-.404-.72-.457-.264-.052-.44.14-.721.282.053.052.105.14.176.246-.246-.159-.422-.211-.756-.088a1.94 1.94 0 0 0-1.002.738c-.21.756 3.55-.088 3.55-.088l1.547-.352z" fill="#88ce02"/><path d="M20.206 207.656s0-.194-.018-.37c0-.034-.14-.122-.14-.158l-.035-.035s.281-.158.492-.07c.228.07.351.37.351.37.405-.141.44.017.633.228.422-.088.474.07.738.457 0 0-.316-.053-.931.052-.598.088-1.09-.492-1.09-.474z"/><path d="M20.136 207.568s.105-.088.07-.106c.193-.105.457-.228.58.106.404-.14.457.052.65.263.492-.228.527.053.563.176a6.94 6.94 0 0 0-.703.053c-.598.088-1.178-.51-1.16-.492z" fill="#88ce02"/><path d="M14.16 207.128s1.002.352 1.846.3c.843-.071 2.284-.141 3.058.316 0 0 .79-.282 1.529-.088.738.193 2.091 1.458 1.687 2.794-.035.088-.264.228-.527.316 0 0 .14.598-.106 1.09-.246.474-.79 1.388-.808 2.654-.018.21-.053.65-.088.86-1.37-.052-3.48-.562-5.554-.526.018-.229.036-.37.053-.598h.053c-.106-.58-.14-.879-.246-1.318-.668-.422-1.371-.914-1.969-1.845-.58-.932 1.072-3.955 1.072-3.955zM20.944 216.619s1.09 3.901-.193 5.536c0 0 .193.755-.246 1.564-.07.351-.158.668-.211 1.019-.228 1.459-.615 2.074-.72 4.411l-1.055-.017s-.123-1.687-.492-2.584c-.211-.51-1.037-1.195-1.002-1.88.035-.527.14-.967 1.037-1.67.07-1.02-.95-1.986-.79-5.782l3.672-.597z"/><path d="M20.628 216.46c.281 1.793.931 4.447-.246 5.747.052.246.088.598.017 1.002-.035.21-.105.44-.193.685-.176.422-.246 1.037-.299 1.406-.228 1.459-.228 1.53-.334 3.867l-1.054-.018s-.123-1.687-.492-2.583c-.211-.51-.65-.95-.686-1.635-.035-.527.334-1.581 1.213-1.546-.053-2.127-1.037-1.705-1.3-6.134l3.374-.79zM14.16 207.128s.387.123.809.159c.422.035.879 0 1.283-.018.843-.07 2.038-.158 2.83.299 0 0 .439-.14.913-.106.211.018.422.194.668.264.773.193 1.511 1.476 1.177 2.636-.035.088-.28 0-.562.088.053.246.088.808-.193 1.406-.299.598-.686 1.37-.615 2.847-1.846-.088-2.672-.21-4.5-.299-.158-.65-.263-1.3-.28-1.634.245-.123.386-.229.58-.44-.528.088-.739.053-1.055-.123-.317-.175-.879-.738-1.16-1.107-.035-.035-.229.545-.668.563-.158-.229.51-.88.387-1.125-.44-.896.386-3.41.386-3.41z" fill="#efefef"/><path d="M20.768 215.002s.035.632.035.79c0 .176.141.704.159.95-.194.334-1.037 1.09-2.566 1.37-1.512.317-3.515-2.056-3.515-2.056.053-.228.228-.896.351-1.248a.558.558 0 0 0 .053-.158c.158-.228 5.483.352 5.483.352z"/><path d="M20.382 215.055c0 .439.07.755.123 1.036.088.51.228.844.228 1.178 0 1.02-1.335.843-2.46.879-1.512.316-2.795-2.057-2.795-2.057.106-.404.176-.86.334-1.247.018-.211.053-.475.07-.598 2.145 0 3.656.123 4.535.21.035.194 0 .528-.035.599z" fill="#efefef"/><path d="M18.695 217.322s-.932-2.074-3.726-1.459c-.668 1.88-1.564 4.042-.984 6.38-.58.79-1.248 1.23-1.248 2.688 0 1.46.07 1.705.07 1.705l2.056.106s.668-.861.932-1.793c.07-.264.14-.738.088-1.283.07-.105.369-.351.404-.826 0 0 1.002-.527 1.582-1.81.544-1.16.404-2.162.826-3.708z"/><path d="M18.695 217.322c-.053-.194-.756-2.092-3.357-1.53-1.53 4.078-.967 5.765-.738 6.503-1.037 1.318-1.512 1.6-1.3 4.27h1.37c.633-1.001.773-1.37.809-2.688 0-.053-.194.105-.334.281.105-.545.404-.65.632-.984.106-.14.194-.352.194-.633 1.23-.826 1.687-1.863 1.95-2.935.211-.738.457-1.95.774-2.284z" fill="#efefef"/><path d="M14.354 214.492s.474.018.896.158c.404.14.404.229.562.405.159.175.545.439.475.702-.035.141-.123.176-.246.3-.053.052-.44.474-.527.526-.053.036-.123.088-.176.123l-.264.176c-.175.088-.298.14-.492.123 0 0-.44-.017-.72-.316 0 0-.035-.14.035-.21 0 0-.37-.317-.475-.528-.105-.211-.105-.51-.035-.668.035-.158.72-.598.967-.79zM14.793 231.592l-.053.44s-.158.193-1.335.175c-1.195-.017-1.512-.386-1.617-.58l-.07-.457s.228-.334.28-.334c.388.036 1.706.563 2.62.703.087 0 .105.036.175.053zM17.341 230.696c0 .193-.017.193-.017.386.21.159.738.247 1.74.229 1.458-.035 2.812.44 4.464.158l.017-.316-.158-.018-5.852-.474-.194.035z"/><path d="M18.624 231.31h.44c.949-.034 1.845.177 2.812.23.51-.018 1.142-.141 1.09-.51l-4.992-.422c-.299.334-.07.615.65.703zM12.895 223.912c.158.105 1.23.738 2.97.65-.035.334-.017.984-.79 2.127-.387.562-.721 1.546-.792 2.794.018.281.176.527-.035.896.07.229.352.686.492.967.14.281.211.598-.72.615-.95.018-2.478-.088-2.267-.826.105-.386.404-.79.44-.949.034-.158.034-.632.333-.949.264-.879.176-1.722.123-2.513-.088-.826-.105-2.144.246-2.812zM14.53 209.589c1.247-1.67.193-3.005-1.81-2.601-.81.158-1.617.72-1.67 1.74-.264.035-.861.07-1.16 1.16-.229.843-.352 1.001-.756 1.423-.263.299.018.914.211 1.353.65 1.512 2.654 1.652 4.007 2.795.457-.123.931-.633 1.072-.967-1.142-1.353-.896-1.88-1.353-2.583.492-.176 1.617-.861 1.458-2.32z"/><path d="M14.283 209.483c.07-.105.194-.334.246-.421.018-.018.211.316.229.298.474-.773.597-1.898.053-2.003a3.115 3.115 0 0 1-.545-.14c-.352-.124-.668-.124-1.23-.018-.774.14-1.547.703-1.547 1.511 0 .053.545.21.703.861-.264-.369-.72-.773-1.265-.422-.58.37-.282 1.213-1.055 2.092-.264.298-.228.65.053 1.353.457 1.107 2.618 1.705 3.796 2.76.281-.124.474-.405.615-.616-.79-.826-1.107-1.6-1.336-2.162-.28-.65-.597-1.019-1.212-1.511.316.123.562.246.703.351.158.106.386.123.597.053.756-.263 1.16-1.318 1.195-1.986z" fill="#efefef"/><path d="M21.928 209.765c-.052.667-.544.333-.808.21-.527-.228-1.055-.386-1.67-.386s-1.406.053-2.091.228c-.949.264-1.23.246-1.652.035-.422-.228-1.16-.79-1.16-.79s-.017.175.158.404c.229.281.738.632 1.424.86.334.106.597.036.896-.034 1.564-.387 3.216-.457 4.605.386.07.036.316-.07.421-.228.14-.228-.123-.685-.123-.685z"/><path d="M13.932 216.46c.14.088.316.141.51.3 0 0-.159 0-.229-.071a2.48 2.48 0 0 1-.281-.229z" fill="#001423"/><path d="M19.011 202.524c-.053-.158-.44-.44-1.336-.44-.966 0-1.247.3-1.265.457 0 .053-.07.616-.088.844 0 0 0 .281.018.703.017.281.088.44.123.808.035.387.14.633.334.95.087.052.158.105.246.122.351.07.966.088 1.3 0 .193-.052.44-.386.492-.685.07-.369.14-.633.158-.861.035-.228.053-.738.07-.879.053-.386-.035-.984-.052-1.02z" fill="#efefef"/><path d="M17.166 224.246s.931.404 3.233.053c0 0-.65 3.269-.351 4.903 0 0 .299.422 2.513 1.23 0 0 .984.246.95.738 0 0 .034.106-1.16.07-1.196-.035-2.32-.245-3.111-.245-.791 0-1.635.035-1.775-.194-.159-.21.035-.756.263-1.072.246-.334.176-.58.158-1.177-.053-1.564-1.248-3.181-.72-4.306z"/><path d="M16.972 224.545c-.123.176.018.843.194 1.494.175.65.562 1.037.65 2.108.088 1.055.105 1.196-.193 1.81-.3.616-.387 1.178.65 1.196 1.037.017 1.6-.018 2.654.14 1.054.158 1.423.211 2.003.123.58-.087.703-.28.457-.457-.246-.175-1.265-.369-1.705-.72-.422-.317-1.617-.844-1.634-.984-.053-.475-.07-2.197.017-2.76.088-.562.211-1.37.246-1.581.036-.211.211-.422-.087-.352-.3.07-1.424.229-2.267.176-.844-.053-.932-.246-.985-.193z" fill="#88ce02"/><path d="M17.57 229.975c.299.14.738.246 1.072.246 0 0-.123.58.07.932.193.351-1.406.14-1.406.14l-.07-1.247.334-.07zM22.227 231.487c.281-.088.475-.405.246-.703-.246-.3-.457-.352-.14-.37.316-.017 1.476.686 1.476.686l-.598.545-.984-.158zM16.92 225.23c.404.14 1.019.176 1.546.158.527-.017 1.318-.088 1.828-.263.51-.176.299.193.299.193l-.282.264s-.667.263-1.757.246c-1.283-.018-1.67-.158-1.67-.158l.036-.44zM16.955 226.109c.404.14 1.019.176 1.546.158.527-.017 1.23-.017 1.74-.21.211-.071.088.228.088.228l-.088.158s-.685.246-1.757.228c-1.283-.017-1.512-.123-1.512-.123l-.017-.44z" opacity=".3"/><path d="M17.166 224.246s1.529.545 3.251.176c0 0-.668 3.146-.369 4.762 0 0 .299.422 2.513 1.23 0 0 .984.247.95.739 0 0 .034.105-1.16.07-1.196-.035-2.32-.246-3.111-.246-.791 0-1.635.035-1.775-.193-.159-.211.035-.756.263-1.072.246-.334.176-.58.158-1.178-.053-1.546-1.248-3.163-.72-4.288z" fill="none"/><path d="M17.166 224.246s1.529.527 3.251.158c0 0-.668 3.164-.369 4.78 0 0 .299.422 2.513 1.23 0 0 .984.247.95.739 0 0 .034.105-1.16.07-1.196-.035-2.338-.369-3.111-.246-.826.14-1.635.088-1.775-.193-.124-.229.035-.756.263-1.072.246-.334.176-.58.158-1.178-.053-1.546-1.248-3.163-.72-4.288z" fill="none"/><path d="M15.795 213.79c0 .122 1.37.808 2.126.948.756.14 2.338 0 2.584-.053l-.035.247s-1.88.28-3.322-.106c-1.441-.386-1.283-.474-1.283-.474l-.07-.563z"/><g fill="#efefef"><path d="M12.86 228.78c.21.106.966.299 1.459.194.07-.018 0-1.213.193-1.758.281-.756.738-1.37.949-2.706a11.012 11.012 0 0 1-2.021-.405c-.563 1.723-.37 3.199-.58 4.675zM14.037 229.887c.123.036.211.176.246.088.07-.158-.123-.457-.14-.667v-.018c-.158-.14-1.23-.158-1.16-.088-.123.228-.316.193-.387.65-.035.229.247.035.51.018-.474.316-1.02.72-1.107 1.072-.106.492.07.633.597.896.457.106 1.002.123 1.424.106.474-.088.562-.317.422-.633-.211-.475-.352-1.09-.405-1.424z"/></g><path d="M14.23 207.058c.58.334 1.39.246 1.688.229.07 0 .773-.123.808-.106.07.018.07.07.07.07s-.263.14-.86.176c-.563.035-1.23 0-1.6-.176-.44-.193-.105-.193-.105-.193zM20.206 207.392c.105.07.79.334 1.09.65.263.282.123.264.07.194-.07-.088-.615-.457-.826-.545-.21-.088-.475-.246-.475-.281 0-.036.141-.018.141-.018z"/><path d="M14.143 214.685c.51-.035 1.037.088 1.37.44.176.176.458.369.422.545 0 .052-.105.193-.193.298-.053.07-.21.229-.263.282-.07.052-.317.246-.37.28-.052.036-.123.124-.175.141-.176.088-.37.018-.545-.07-.176-.088.035-.105-.158-.246-.475-.334-.738-.562-.545-1.213.018-.123.21-.263.457-.457z" fill="#efefef"/><path d="M9.661 210.66c-1.581.634-5.606 2.637-6.748 3.252.949.598 1.388 2.039 1.529 3.498.017.14.035.263.052.404.018.123.036.21.053.263 0 .018 0 .053.018.07 1.037-2.829 4.745-5.816 4.885-6.045.07-.105-.088-.562.159-1.002.316-.562.931-.808.052-.44zM13.422 223.93c.809-1.617.826-3.164.809-4.974 0-.756.544-1.828.263-1.529-1.054 1.177-3.708 3.392-5.623 3.515 2.688-.088 3.743 1.265 4.551 2.988z" opacity=".4"/><path d="M1.366 215.406c1.002-.72 6.186-3.48 7.434-3.866 1.248-.405.861-.88.861-.88s-5.061 2.18-8.084 4.06"/><path d="M16.129 210.327c-.405-.158-.72.316-.615.773.105.457 1.054.967 1.001 2.636-.035 1.371-.334 1.934-.334 1.934l-.667-.844s-.106-1.898-.334-2.18c-.229-.28-.95-.79-1.23-1.054-.282-.263.316-.615.28-1.107-.034-.474.3-1.423.3-1.423l1.599 1.265zM18.572 217.814c-.035 1.318.263 3.269.386 4.2s.281 1.002 0 1.424c-.28.404-.65 1.072-.65 1.072l-1.213-.106s.967-1.23 1.02-1.459c.052-.228-.492-1.968-.492-1.968l.949-3.163zM16.234 205.512c.246.544.545.79 1.02.949.28.105 1.388.246 1.827-.246.194-.229.07-.844.07-.844l-1.001.808-1.353-.246-.159-.404-.404-.017z" opacity=".4"/><path stroke-miterlimit="10" d="M16.34 206.724c.457.299 1.599.58 1.915.633.317.07.826-.334 1.072-.44.264-.123.72-.193 1.248.282.053.052-.123.28-.123.28-.018-.017-.123-.017-.264-.087a.794.794 0 0 0-.474-.105c-.879.105-1.02.404-1.793.228-.773-.176-.966-.316-1.722-.281" fill="#88ce02" stroke="#000" stroke-width=".13684008" stroke-linejoin="round"/><path d="M16.181 206.777c.58.246 1.705.51 2.022.58.316.07.825-.246 1.072-.404.439-.282 1.001-.053 1.265.246.176.193.246.316.246.369 0 .07-.21 0-.21 0-.124-.053-.265-.07-.37-.14-.14-.071-.281-.177-.492-.159-.879.105-1.054.404-1.81.228-.756-.175-.95-.333-1.758-.28" fill="#88ce02"/><path d="M13.457 223.191c-.035-.035.036-.07 0-.07-.228 0-.544-.176-.72-.422-.756-1.09-1.863-1.81-3.867-1.757-3.005.07-4.2-1.16-4.428-3.515-.123-1.283-.475-2.53-1.195-3.234l-.422.264c.808.703 1.072 1.845 1.248 3.41.28 2.354 2.179 3.444 4.393 3.48 2.302.034 3.128.509 3.99 1.669.28.369.597.492.843.545l.158-.37z"/><path d="M21.612 211.891c.053.264.193.773.474 1.02.124.122.141.157.036.157-.106 0-.88-.035-.88-.035l-.21-.369.58-.773z" opacity=".4"/></svg>