<svg xmlns="http://www.w3.org/2000/svg" width="32" height="32" viewBox="0 0 32 32" preserveAspectRatio="xMidYMid"><path d="M19.539 30.85l.303-5.048.836-1.428s-1.903.779-5.09.779-5.062-.764-5.062-.764l.937 1.557.332 4.903c0 .526 1.733.952 3.872.952 2.138 0 3.872-.426 3.872-.952M18.583 7.28l.636-2.514 3.521-3.704-.928-.79-3.727 3.946-.739 3.002a49.459 49.459 0 0 0-1.667-.028c-3.926 0-7.108.448-7.108 1 0 .551 3.182.999 7.108.999 3.926 0 7.108-.448 7.108-1 0-.406-1.726-.756-4.204-.912" fill="#d34a47"/><path d="M18.214 8.687s-.138.03-.543.032c-.405.002-.693-.002-.808-.107a.18.18 0 0 1-.047-.121c0-.072.051-.114.116-.14l.061.096c-.026.009-.042.02-.042.031 0 .055.415.092.732.088.317-.004.7-.03.7-.084 0-.016-.029-.031-.08-.043l.062-.096c.082.026.154.075.154.16-.001.145-.186.167-.305.184" fill="#fff"/><path d="M22.733 1.069c.089-.102-.046-.364-.3-.584-.254-.22-.532-.316-.621-.214-.089.102.046.364.3.584.254.22.532.316.621.214M19.37 18.52c-.084-.802 1.756-1.965 1.284-2.002-1.017.058-1.523 1.191-2.034 2.378-.187.434-.828 2.289-1.249 2.06-.42-.228.545-1.753.816-2.658-.312.229-1.457 1.118-1.753.285-.474.403-1.488.622-1.373-.437-.253.447-.82 1.071-1.5.812-.892-.34.518-3.185.869-3.041.35.143-.07.791-.181 1.043-.243.553-.524 1.25-.336 1.392.32.244 1.194-.924 1.214-.95.163-.215.629-1.627 1.004-1.465.375.162-.936 2.027-.446 2.396.099.075.503-.046.75-.312.159-.172.104-.553.634-1.819.531-1.265 1.004-2.84 1.368-2.72.364.12.064.928-.067 1.23-.612 1.415-1.672 3.752-1.172 3.575.5-.176.76-.187 1.249-.76.49-.572.467-1.515.793-1.495.326.02.271.323.192.553.32-.367 1.521-1.14 1.811-.375.343.907-1.717 2.217-1.204 2.15.501-.065 1.313-.579 1.66-1.046l.953-8.575s-.96.795-7.065.795c-6.106 0-6.966-.778-6.966-.778l.812 7.826c.43-1.225 1.454-3.702 3.067-3.62.734.039 1.714 1.452.875 1.5-.356.02-.392-.706-.812-.812-.304-.077-.726.17-1 .437-.544.533-1.716 2.636-1.56 3.685.196 1.336 1.844-.465 2.123-1 .196-.376.328-1.492.758-1.375.43.117-.038 1.268-.349 2.287-.35 1.143-.533 2.35-.972 2.21-.438-.138.276-1.614.25-1.873-.412.38-1.17 1.342-2.141.866l.504 4.86s1.34 1.06 5.378 1.06c4.037 0 5.427-1.043 5.427-1.043l.626-5.63c-.512.5-2.134 1.385-2.237.387" fill="#d34a47"/></svg>