<svg xmlns="http://www.w3.org/2000/svg" width="32" height="32" viewBox="0 0 32 32" preserveAspectRatio="xMidYMid"><path d="M15.15 16.181L13.01 31.46s-3.488 1.28-6.65-1.395L9.823 15.25 3.29 1.996S5.87.903 7.522 1.276l5.744 10.836 9.953-8.465s3.348 1.163 3.65 2.279L15.15 16.181z" fill="#ecdfa7"/><path d="M28.218 17.708a4.739 4.739 0 0 0-.604-.907 6.365 6.365 0 0 0-1.628-1.325 8.185 8.185 0 0 0-1.884-.884l-.255-.07-.21-.07c-.14-.046-.255-.115-.372-.162-.232-.14-.395-.279-.511-.465-.233-.349-.256-.884-.14-1.442.023-.14.07-.279.116-.418.047-.14.093-.28.14-.442.046-.21.07-.419.07-.675l.116-.093 1.395-1.162c.256-.21.512-.442.768-.651.093.046.186.116.255.162 0 0 .721.07 1.117-1.023l-.21-.14.14-.116.349-.302a.684.684 0 0 0 .255-.419.591.591 0 0 0-.465.14l-.372.279-.255.186-3.21-2.21.466-.394.674-.605.07-.07c.07.047.116.093.186.14.162.116.349.232.511.325l1.023.558c.326.186.675.372 1.024.535.162.093.348.163.535.233.093.023.186.07.279.093.046 0 .116.023.162.023h.117c.046 0 .093-.023.14-.093v-.023c0-.023 0-.047.022-.07v-.093c0-.046-.023-.07-.046-.093-.023-.047-.07-.093-.093-.14-.07-.07-.14-.162-.21-.209-.139-.14-.302-.256-.441-.372-.303-.232-.628-.442-.954-.651a8.425 8.425 0 0 0-1-.558c-.162-.093-.348-.163-.534-.233-.093-.023-.186-.07-.303-.093-.046 0-.116-.023-.186-.023-.046 0-.07 0-.14.023-.046.024-.116.047-.185.117-.163.07-.303.14-.419.232l-.698.395c-.209.163-.441.35-.65.512l-.233-.163s-.977.093-.651.721l.093.093c-.93.768-1.837 1.558-2.744 2.326-.93.79-1.837 1.58-2.768 2.395l-1.372 1.209c-.07.07-.14.14-.232.21-.047-.14-.116-.256-.163-.373l-.325-.697-.628-1.396c-.419-.93-.837-1.86-1.28-2.79l-1.302-2.767-.209-.419h.28s.092-.767-.466-.907c0 0-.093 0-.232.023-.21-.418-.396-.837-.605-1.255l-.093-.35C9.22.71 9.15.664 9.103.618A.393.393 0 0 0 8.987.57c-.07-.023-.116-.023-.186-.046C8.685.5 8.591.5 8.5.5c-.21 0-.395.024-.582.047a9.789 9.789 0 0 0-1.139.21c-.372.092-.744.185-1.116.301-.186.07-.372.117-.535.21l-.28.14c-.046.022-.092.069-.139.092l-.07.07c-.023.023-.023.046-.046.07v.093c.023.093.07.116.116.14.047.023.07.046.093.046.07.023.117.023.163.046.093.024.21.024.303.024.186 0 .395-.024.58-.047.373-.046.768-.093 1.14-.163l1.14-.186c.186-.023.372-.07.581-.116.163.325.326.674.488 1-1.07.093-2.744.232-3.79.349-.116-.21-.21-.396-.326-.605-.023-.046-.093-.093-.162-.07-.07.024-.093.093-.07.163.07.186.14.349.21.535-.326.046-.536.093-.559.14-.116.209.233 1.302.698 1.58 0 0 .186-.069.511-.139l.489 1.116L7.592 8.71l1.418 3.163c.466 1.046.954 2.092 1.442 3.162 0 0 0 .023.023.023l-.209.698-.558 1.953c-.349 1.303-.674 2.628-1 3.93l-.488 1.977-.465 1.977c-.326 1.325-.628 2.627-1 3.93 0 .023 0 .07.023.093.186.255.442.441.674.627.256.186.512.326.768.465.535.28 1.093.489 1.674.675.581.163 1.186.279 1.814.302.302.023.628 0 .93-.046a7.31 7.31 0 0 0 .93-.186c.093-.024.163-.117.186-.21v-.023c.256-1.279.465-2.581.698-3.86l.651-3.884c.21-1.302.442-2.58.651-3.883l.07-.442c.046.047.07.116.116.163.233.279.512.512.79.72a8.053 8.053 0 0 0 1.768.931 13.147 13.147 0 0 0 3.093.767c-.186.419-.302.86-.28 1.35 0 .046.024.092.07.115h.024c.442.233.907.419 1.418.535.489.093 1.024.14 1.535.07.535-.07 1.07-.28 1.488-.628.42-.349.721-.814.907-1.302l.024-.023v-.024l.07-.627v-.024c.232-.14.465-.279.697-.465.28-.232.535-.488.72-.814.187-.325.303-.72.28-1.116-.023-.372-.163-.744-.326-1.07zm-.441-11.72s0 .024 0 0zm-1.651-1.232c.325.186.627.372.93.604.14.117.302.21.442.35.07.069.14.115.186.185l.046.047h-.046c-.093-.024-.163-.047-.256-.07-.163-.07-.349-.14-.512-.21-.325-.162-.674-.325-.976-.534a6.264 6.264 0 0 1-.86-.698c-.094-.093-.187-.186-.257-.279l.35.14c.301.116.627.279.953.465zm-1.582-1.023l.024.023v.046s0-.023-.024-.023v-.046zM7.964 1.128c-.326.163-.698.28-1.046.372a5.97 5.97 0 0 1-1.093.186c-.186.023-.372.023-.558.023-.094 0-.187 0-.256-.023h-.07c.023 0 .023-.023.046-.023.07-.047.163-.07.233-.116.163-.07.349-.117.512-.186.348-.093.72-.186 1.093-.256.372-.07.744-.116 1.092-.14.117 0 .233 0 .35-.023-.07.07-.187.116-.303.186zm16.138 7.93l-1.441 1.116-1.442 1.14c-.395.325-.79.65-1.186.953.023-.023.046-.07.07-.093.186-.256.372-.488.558-.721.395-.465.767-.953 1.186-1.395.418-.442.86-.884 1.302-1.28a5.44 5.44 0 0 1 .72-.557l.21-.14c.21.163.442.326.651.488-.186.163-.418.326-.628.489zM7.057 6.198l.116.116c.233.232.465.465.651.72.187.256.35.536.419.815.047.232.047.488-.07.697l-.023-.07-1.093-2.278zm1.14 2.418a.804.804 0 0 0 .162-.28.967.967 0 0 0 .047-.51 1.893 1.893 0 0 0-.419-.93 4.484 4.484 0 0 0-1.093-1L6.64 5.36a13.987 13.987 0 0 0-.512-1.023c.349-.093.767-.232 1.232-.349.419.675.791 1.372 1.14 2.093.395.907.79 1.86.86 2.837.024.233 0 .489 0 .744 0 .256 0 .512.024.768.023.349.093.72.162 1.07L8.197 8.616zm5.488 18.952c-.07.093-.117.163-.21.233-.116.093-.232.14-.372.116-.116-.023-.21-.14-.256-.256a1.096 1.096 0 0 1-.093-.395 2.54 2.54 0 0 1 .047-.837c.046-.28.14-.535.256-.79.07-.117.14-.233.232-.326.093-.093.21-.163.326-.14.116 0 .232.116.302.233.047.07.07.14.093.209l-.279 1.65c-.023.117-.023.21-.046.303zm1.372-8.023l-.419 2.442a3.717 3.717 0 0 0-.116-.488c-.117-.442-.256-.86-.396-1.28a17.349 17.349 0 0 0-1.07-2.418c.256.86.559 1.675.861 2.512.163.418.302.837.442 1.232l.21.628c0 .023.022.07.022.093-.07.372-.14.744-.186 1.14l-.348 2.116c-.024-.047-.024-.093-.047-.14-.07-.14-.163-.279-.349-.325-.162-.047-.325.046-.465.14-.116.092-.21.232-.302.348a2.274 2.274 0 0 0-.302.837c-.047.303-.07.605 0 .907.023.14.07.302.162.442.07.14.21.279.372.302.163.024.326-.07.419-.186.047-.046.093-.116.14-.163-.163 1.093-.35 2.186-.512 3.303-.21.07-.419.116-.628.14-.279.046-.558.069-.837.092a6.175 6.175 0 0 1-1.72-.163 8.761 8.761 0 0 1-1.675-.535c-.512-.232-1-.534-1.372-.953.349-1.279.744-2.558 1.14-3.837l.604-1.93.581-1.953c.396-1.303.79-2.605 1.163-3.907.186-.651.349-1.302.535-1.953.14-.675.418-1.303.21-2.047v-.023c-.024-.023-.047-.023-.047 0-.117.116-.186.21-.28.326-.255-.582-.534-1.14-.79-1.721-.07-.21-.14-.419-.186-.651a8 8 0 0 1-.233-1.465c-.023-.256-.023-.489-.023-.745 0-.255.023-.511 0-.767-.093-1.023-.488-2-.93-2.907a14.054 14.054 0 0 0-1.233-2.046c.768-.21 1.582-.419 2.233-.535.093.21.21.395.302.605l1.395 2.744 1.396 2.72.697 1.35.35.674c.092.139.139.302.232.418l-.907.837c-.024.023-.047.07 0 .117.023.046.093.046.116.023.488-.35.977-.721 1.465-1.093l1.465-1.116c.977-.745 1.93-1.489 2.884-2.233.953-.744 1.906-1.511 2.86-2.279l.023-.023c.512.488 1.279 1.21 2.093 1.837a6.88 6.88 0 0 0-.977.605c-.488.372-.953.79-1.372 1.255-.418.466-.814.93-1.162 1.442-.256.349-.489.721-.721 1.116a102.174 102.174 0 0 0-4.163 3.582.143.143 0 0 0-.023.162c.046.047.116.07.163.047-.163.465-.256.93-.35 1.395-.139.651-.278 1.302-.394 1.953zm10.278 3.117c-.326.255-.721.418-1.14.511-.418.093-.883.093-1.325.047a8.22 8.22 0 0 1-1.279-.233c-.047-.372.023-.79.186-1.163.163.024.302.024.465.047.07 0 .116-.023.14-.093.023-.07 0-.163-.093-.186-.117-.047-.21-.07-.326-.116.093-.163.21-.303.326-.442.14-.14.279-.28.418-.396.302.186.605.326.954.442.395.117.813.163 1.255.117.419-.047.86-.256 1.14-.605.256-.302.372-.651.395-1.023a.95.95 0 0 1 .023.442c-.023.186-.046.395-.093.58l-.07.35-.348.209c-.14.093-.256.186-.372.395.209.07.372.047.535 0 .023 0 .023-.023.046-.023-.023.07-.023.116-.046.186a2.85 2.85 0 0 1-.791.954zm2.302-3.047a2.452 2.452 0 0 1-.512.698c-.093.093-.209.186-.302.256 0-.21-.023-.419-.07-.628a1.713 1.713 0 0 0-.093-.326c-.046-.093-.093-.21-.209-.279-.023 0-.046 0-.046.023-.14.35-.372.652-.628.86-.256.21-.582.303-.907.326-.326.024-.675-.046-1.023-.14-.35-.092-.698-.208-1.047-.325l-.046-.023a.223.223 0 0 0-.21.047c-.186.232-.325.441-.488.674-.116.186-.21.349-.302.535-.419-.163-.814-.303-1.233-.465-.581-.233-1.162-.465-1.697-.744a8.54 8.54 0 0 1-1.558-.907c-.465-.35-.884-.721-1.093-1.186v-.024a.456.456 0 0 0-.21-.209c0-.046.024-.116.024-.163.07-.558.162-1.116.116-1.697 1.884-1.326 3.72-2.72 5.534-4.163l-.07.21a3.65 3.65 0 0 0-.162 1.139c.023.395.14.837.395 1.21.256.371.605.65.954.813.186.093.372.163.535.21l.279.07.232.046a7.42 7.42 0 0 1 1.72.697 6.874 6.874 0 0 1 1.466 1.093c.419.419.744.954.79 1.489.024.372-.023.65-.139.883z" fill="#3f3e29"/><path d="M12.196 24.964a2.413 2.413 0 0 0-.395.86c-.047.163-.07.326-.07.465l-.023.465c-.047.605-.023 1.256.163 1.86a8.54 8.54 0 0 0 .744 1.698c-.093-.302-.21-.581-.302-.86a9.798 9.798 0 0 1-.256-.884c-.14-.581-.14-1.186-.117-1.79l.024-.466c0-.14.023-.302.046-.441.07-.28.186-.558.326-.814.163-.256.349-.489.581-.698.21-.21.465-.395.744-.535-.581.233-1.116.605-1.465 1.14z" fill="#3f3e29"/></svg>