<svg xmlns="http://www.w3.org/2000/svg" width="512" height="512" viewBox="0 0 512 512"><path d="M108.382 0h23.077v22.8h21.11V0h23.078v69.044H152.57v-23.12h-21.11v23.12h-23.077L108.382 0zM205.994 22.896h-20.316V0h63.72v22.896h-20.325v46.148h-23.078l-.001-46.148zM259.511 0h24.063l14.802 24.26L313.163 0h24.072v69.044h-22.982V34.822l-15.877 24.549h-.397l-15.888-24.549v34.222h-22.58V0zM348.72 0h23.084v46.222h32.453v22.822H348.72V0z"/><g><path fill="#E34E26" d="M107.125 470.727L74.012 99.297h363.691l-33.154 371.458L255.769 512z"/><path fill="#EF662A" d="M255.857 129.657v350.792l120.307-33.348 28.346-317.444z"/><path fill="#FFF" d="M141.761 175.217l12.28 137.761h157.895l-5.299 59.088-50.838 13.745-50.742-13.726-3.393-37.939h-45.727l6.539 73.136 93.311 25.917 93.432-25.917 12.525-139.853H195.706l-4.168-46.652H365.873l4.08-45.56z"/><g fill="#EBEBEB"><path d="M255.857 175.217H141.761l12.28 137.761h101.816v-45.549h-60.151l-4.168-46.652h64.319zM255.857 385.791l-.058.02-50.742-13.726-3.393-37.939h-45.727l6.539 73.136 93.311 25.917.07-.02z"/></g></g></svg>