<svg xmlns="http://www.w3.org/2000/svg" width="32" height="32" viewBox="0 0 32 32"><path d="M7.277.341h1.41v1.393h1.29V.341h1.409V4.56h-1.41V3.147h-1.29v1.412H7.278V.34zM13.24 1.74h-1.241V.34h3.892V1.74h-1.242v2.819h-1.41v-2.82zM16.509.341h1.47l.904 1.482.903-1.482h1.47V4.56h-1.404v-2.09l-.97 1.499h-.024l-.97-1.5v2.09h-1.38V.342zM21.958.341h1.41v2.824h1.982v1.394h-3.392V.34z"/><g><path fill="#e34e26" d="M27.393 6.407l-2.025 22.69-9.088 2.52-9.08-2.522L5.177 6.407z"/><path fill="#ef662a" d="M16.285 8.261V29.69l7.35-2.037 1.73-19.39z"/><path fill="#fff" d="M16.282 23.908l-3.1-.838-.207-2.318h-2.793l.4 4.468 5.7 1.583 5.706-1.583.765-8.543H12.611l-.255-2.85h10.65l.249-2.783H9.315l.751 8.415h9.645l-.324 3.61z"/><g fill="#ebebeb"><path d="M16.285 11.044h-6.97l.751 8.415h6.22v-2.782H12.61l-.255-2.85h3.93zM16.285 23.907l-.003.001-3.1-.838-.207-2.318h-2.793l.4 4.468 5.7 1.583.003-.001z"/></g></g></svg>