<svg height="512" viewBox="0 0 512 512" width="512" xmlns="http://www.w3.org/2000/svg"><path d="M456 6H56C28.383 6 6 28.383 6 56v400c0 27.607 22.383 50 50 50h400c27.618 0 50-22.393 50-50V56c0-27.617-22.382-50-50-50zm20 420c0 27.607-22.382 50-50 50H86c-27.617 0-50-22.393-50-50V206h20V36h20v170h20V36h20v150.273c6.084-7.617 12.803-14.687 20-21.25V36h20v113.125c29.668-20.401 65.528-32.403 104.268-32.403 67.08 0 125.654 35.83 158.096 89.278H476v220zm0-340c0 16.562-13.437 30-30 30h-52.5c-16.572 0-30-13.438-30-30V66c0-16.573 13.428-30 30-30H446c16.563 0 30 13.427 30 30v20zM258.998 221.996c-43.623 0-78.994 35.371-78.994 79.004 0 43.623 35.371 78.994 78.994 78.994s78.995-35.371 78.995-78.994c0-43.633-35.372-79.004-78.995-79.004zm.01-68.994c-80.635 0-145.996 65.371-145.996 145.996 0 80.635 65.361 145.996 145.996 145.996 80.625 0 145.987-65.361 145.987-145.996 0-80.625-65.362-145.996-145.987-145.996zm0 255.908c-60.693 0-109.902-49.209-109.902-109.902 0-60.704 49.209-109.913 109.902-109.913 60.703 0 109.903 49.209 109.903 109.913 0 60.693-49.2 109.902-109.903 109.902z" fill-rule="evenodd" clip-rule="evenodd" fill="#3b3a39"/></svg>