<svg xmlns="http://www.w3.org/2000/svg" height="32" viewBox="0 0 32 32" width="32"><path d="M28 1H4a3 3 0 0 0-3 3v24a3 3 0 0 0 3 3h24a3 3 0 0 0 3-3V4a3 3 0 0 0-3-3zm1.2 25.2a3 3 0 0 1-3 3H5.8a3 3 0 0 1-3-3V13H4V2.8h1.2V13h1.2V2.8h1.2v9.016c.365-.457.768-.88 1.2-1.275V2.8H10v6.788a10.999 10.999 0 0 1 6.256-1.945c4.025 0 7.54 2.15 9.486 5.357H29.2v13.2zm0-20.4a1.8 1.8 0 0 1-1.8 1.8h-3.15a1.8 1.8 0 0 1-1.8-1.8V4.6a1.8 1.8 0 0 1 1.8-1.8h3.15a1.8 1.8 0 0 1 1.8 1.8v1.2zm-13.02 8.16a4.74 4.74 0 1 0 0 9.48 4.74 4.74 0 0 0 0-9.48zm0-4.14a8.76 8.76 0 1 0 0 17.52 8.76 8.76 0 0 0 0-17.52zm0 15.355a6.594 6.594 0 1 1 .001-13.19 6.594 6.594 0 0 1 0 13.19z" fill="#3b3a39" fill-rule="evenodd"/></svg>