<svg xmlns="http://www.w3.org/2000/svg" width="32" height="32" viewBox="0 0 32 32"><g fill="none"><path d="M30.798 13.234l1.35.007-2.715 3.678c-.066.09-.168.187-.219.307-.13.301-.263.963-.263.963l-1.235.006s.193-.69.185-1.057c-.007-.321-.171-.642-.263-.963-.093-.326-.219-.964-.219-.964h1.27l.175.7 1.934-2.677" fill="#c8c8c8"/><path d="M28.242 13.951c.249.15.402.979.402.979s-1.304.02-2.013.02h-.613l-.744 3.24h-1.139s.709-3.522.876-4.16c.054-.207.371-.171.907-.171h.855c.552 0 1.197-.07 1.469.093M22.942 15.53s.036-.209-.12-.45c-.133-.205-.256-.252-.606-.263-.99-.031-.97.701-.97.701l1.696.012zm1.073-.84c.145.523-.131 1.751-.131 1.751s-1.443-.024-2.233 0c-.246.007-.54-.026-.613.088-.103.16.038.407.157.51.137.12.404.134.5.147.641.081 1.983.02 1.983.02l-.232 1.03s-1.897.095-2.846-.131a.966.966 0 0 1-.482-.263c-.032-.035-.06-.082-.09-.124a1.15 1.15 0 0 1-.128-.226c-.217-.577.025-1.684.262-2.277.028-.068.062-.155.099-.23.045-.092.084-.196.12-.251.025-.038.055-.063.08-.099.03-.042.064-.083.095-.12.088-.102.187-.174.307-.263.395-.296 1.11-.526 1.97-.438.323.034.812.15 1.05.482.065.089.096.265.132.394zM18.794 13.855l1.104-.006s-.615 2.918-.929 4.34H17.7c-.887 0-1.677.11-2.013-.525-.327-.617-.015-1.631.13-2.32.104-.488.322-1.485.322-1.485l1.143-.01s-.323 1.552-.457 2.327c-.048.277-.148.539-.044.744.099.195.237.21.657.219.133.003.569 0 .569 0l.788-3.284M13.628 15.956c.115-.41.284-.856.262-1.226-.023-.395-.355-.756-.569-.831-.645-.228-1.248.09-1.488.35-.31.336-.416.729-.526 1.27-.081.4-.148.825 0 1.138.264.553 1.086.432 1.97.438.132-.352.24-.748.35-1.139zm1.532-1.62c.126.917-.357 1.929-.69 2.809.34.03.637-.004.658.02.023.033-.227 1.05-.315 1.053-.27.006-1.163.015-1.535.015-1.216 0-2.354.08-2.934-.525-.235-.246-.398-.667-.438-.964-.065-.494.017-1.039.132-1.488.103-.406.237-.788.438-1.139.51-.891 1.4-1.553 2.89-1.4.288.03.703.156.962.306.018.011.08.06.095.07.35.222.67.754.737 1.243zM9.78 13.86c-.073.335-.146.714-.224 1.045H8.33c.095-.366.168-.731.263-1.05.392 0 .757.005 1.188.005M8.286 15.212H9.47c-.155.855-.461 2.235-.7 3.196-.151.601-.251 1.04-.658 1.357-.036.029-.057.015-.087.044-.075.072-.421.154-.613.175-.312.034-.664.004-1.047-.003.1-.366.213-.806.303-1.135.933.113.957-.77 1.138-1.62.104-.49.421-1.817.481-2.014" fill="#c8c8c8"/><g fill="#21609b"><path d="M5.528 17.445l-.025.065c-.432.841-1.197 1.357-2.288 1.38-.51.01-.996-.12-1.313-.263a3.393 3.393 0 0 1-1.576-1.489c-.452-.874-.533-2.09.405-2.999.015 0-.113.197-.099.197l-.026.084c-.676 2.118 1.408 3.933 3.434 3.725.486-.05 1.107-.316 1.488-.7"/><path d="M4.302 16.57A1.938 1.938 0 0 0 5.66 16c-.275.7-1.074 1.15-2.145 1.007-.896-.12-1.75-1.022-1.839-1.926-.064-.658.165-1.051.543-1.527-.131.249-.18.44-.192.563-.144 1.424 1.137 2.445 2.276 2.452"/><path d="M5.608 14.801c-.079.182-.535.525-.737.568-.797.17-1.308-.208-1.576-.639a1.97 1.97 0 0 1-.126-.284c-.104-.353-.056-.887.253-1.163a1.454 1.454 0 0 0-.057.766c.03.12.12.33.21.461.166.24.27.298.482.426.096.057.198.103.242.116.201.059.625.215 1.31-.25"/></g></g></svg>