<svg xmlns="http://www.w3.org/2000/svg" width="32" height="32" viewBox="0 0 32 32" preserveAspectRatio="xMidYMid"><defs><linearGradient x1="1.321" y1="127.762" x2="211.764" y2="127.762" id="a" gradientTransform="scale(1.20333 .83103)" gradientUnits="userSpaceOnUse"><stop stop-opacity=".1" offset="0%"/><stop stop-opacity=".2" offset="100%"/></linearGradient></defs><path d="M29.86 28.075H1.995c-1.081 0-1.99-.881-1.99-1.99V5.954c0-1.08.88-1.99 1.99-1.99H29.86c1.08 0 1.99.88 1.99 1.99v20.13c0 1.11-.881 1.991-1.99 1.991z" fill="#e3e3e3"/><path d="M3.985 28.075l11.914-9.582.085-.512L3.7 9.138l-.029 18.51.313.427z" opacity=".1" fill="#231f20"/><path d="M1.995 28.075a1.978 1.978 0 0 1-1.99-1.99V5.925c0-1.109.88-1.308 1.99-1.308 1.108 0 1.99.228 1.99 1.308v22.15h-1.99z" fill="#d54b3d"/><path d="M1.995 4.902c1.421 0 1.706.426 1.706 1.023v21.866H1.995a1.711 1.711 0 0 1-1.706-1.706V5.925c0-.625.284-1.023 1.706-1.023zm0-.285c-1.11 0-1.99.228-1.99 1.308v20.16c0 1.109.88 1.99 1.99 1.99h1.99V5.925c0-1.109-.882-1.308-1.99-1.308z" fill="#d72b27"/><path d="M29.86 28.075h-1.99V5.868c0-1.109.88-1.25 1.99-1.25 1.109 0 1.99.141 1.99 1.25v20.245c0 1.08-.881 1.962-1.99 1.962z" fill="#d54b3d"/><path d="M29.86 4.902c1.28 0 1.706.256 1.706.966v20.245c0 .939-.768 1.706-1.706 1.706h-1.706V5.87c0-.74.426-.967 1.706-.967zm0-.285c-1.11 0-1.99.142-1.99 1.251v22.236h1.99c1.109 0 1.99-.882 1.99-1.99V5.867c0-1.109-.881-1.25-1.99-1.25z" fill="#d72b27"/><path d="M170.667 193.595L1.58 23.195l8.894 3.617 117.702 84.755L254.74 18.76v159.157c0 8.634-7.044 15.678-15.906 15.678h-68.167z" fill="url(#a)" transform="matrix(.12514 0 0 .12514 -.027 3.85)"/><path d="M15.9 18.494L.856 7.575C-.024 6.921-.28 5.67.374 4.788c.654-.881 1.933-1.08 2.843-.426l12.71 9.241 12.796-9.355a1.978 1.978 0 0 1 2.787.455 1.978 1.978 0 0 1-.455 2.787L15.899 18.494z" fill="#d54b3d"/><path d="M29.86 4.134c.54 0 1.053.256 1.394.711.54.768.37 1.82-.37 2.389L15.9 18.153 1.028 7.347C.26 6.78.06 5.698.6 4.96a1.79 1.79 0 0 1 1.422-.71c.37 0 .74.113 1.024.34l12.682 9.213.17.114.17-.114 12.768-9.355a1.884 1.884 0 0 1 1.024-.313zm0-.284c-.397 0-.824.114-1.165.37l-12.796 9.355L3.19 4.333c-.341-.256-.768-.37-1.194-.37-.626 0-1.252.285-1.65.825-.625.882-.37 2.133.512 2.787L15.9 18.522 31.027 7.49a2.025 2.025 0 0 0 .454-2.787 1.949 1.949 0 0 0-1.62-.853z" fill="#d72b27"/></svg>