<svg xmlns="http://www.w3.org/2000/svg" xmlns:xlink="http://www.w3.org/1999/xlink" width="32" height="32" viewBox="0 0 32 32" preserveAspectRatio="xMidYMid"><defs><linearGradient x1=".352" y1=".651" x2="1.012" y2=".5" id="a"><stop stop-color="#FFF" offset="0%"/><stop stop-color="#C0815E" offset="100%"/></linearGradient><radialGradient cx="130.111" cy="126.249" fx="130.111" fy="126.249" r="127.508" id="d" gradientTransform="scale(.792 1.26264)" gradientUnits="userSpaceOnUse"><stop stop-color="#FFF" offset="0%"/><stop stop-color="#A94436" offset="100%"/></radialGradient><linearGradient xlink:href="#a" id="c" x1="50.873" y1="90.128" x2="140.831" y2="69.561" gradientTransform="scale(.66069 1.51357)" gradientUnits="userSpaceOnUse"/><linearGradient xlink:href="#a" id="b" x1="50.873" y1="90.128" x2="140.831" y2="69.561" gradientTransform="scale(.66069 1.51357)" gradientUnits="userSpaceOnUse"/></defs><path d="M3.827 31.627s.049-7.565.049-15.255C3.876 1.477 2.62.367 9.304.367h18.602v21.486c0 7.072 1.323 9.843-6.11 9.843s-17.969-.069-17.969-.069z" fill="#a62c39"/><path d="M1.887 29.917s12.288 2.458 22.938 20.48c10.65 18.023 67.176 158.11 67.176 158.11V94.634L39.57 9.437 54.317 27.46 82.17 4.52 46.125 2.064 1.887 29.917z" fill="url(#c)" transform="matrix(.097 0 0 .097 18.982 .275)"/><path d="M3.102.889s81.102 54.068 120.425 64.718c39.322 10.65 79.464 22.15 79.464 22.15l-92.572 229.35 40.142 1.638 52.43-128.604L201.352.07 3.102.89z" opacity=".668" fill="url(#d)" transform="matrix(.097 0 0 .097 8.295 .469)"/><path d="M15.907 23.997l7.994 7.684-15.067-.135s-.477-4.847-.318-7.39c.16-2.543.954-2.543.954-2.543l6.437 2.384z" fill="#fff" fill-opacity=".44"/><path d="M23.456 31.707l-7.39-7.63-6.755-2.542L4.066 9.853 9.629.555H6.065L4.384 1.826 3.827 2.94v28.768h19.63z" fill-opacity=".362"/><path d="M27.986 19.548s-7.47 2.384-11.92 4.61c-4.45 2.224-6.835 7.628-6.835 7.628s9.537-.477 13.113-.318c3.576.16 5.245.16 5.562-4.847.318-5.007.08-7.073.08-7.073z" opacity=".5" fill="#83222d"/><g fill="#fff"><path d="M6.13 24.294v4.694h1.197v-1.223l1.09 1.09h1.836l-1.456-1.457s1.048-.017 1.127-1.533c0-1.39-1.05-1.57-2.261-1.57H6.13zm1.254 1.273h1.033v.836H7.384v-.836zM12.565 24.313c-.655-.004-1.564.057-1.564 1.292v3.262h1.229v-.798h1.19v.78h1.236v-3.421c0-1.073-1.192-1.115-1.83-1.115h-.26zm-.316 1.178h1.153v1.286h-1.153v-1.286zM15.887 24.316h1.271v4.49h-1.271zM18.49 24.376v4.49h3.059v-1.192H19.74v-3.318l-1.252.02zM25.602 24.336v1.212h-2.046v.437h.874c.457 0 1.41-.02 1.41 1.41 0 1.431-.655 1.51-1.986 1.51h-1.61v-1.092h1.848c.556 0 .587-.181.587-.34 0-.157-.285-.23-.863-.23-.578 0-1.651-.285-1.651-1.397 0-1.113.556-1.53 1.669-1.53 1.112 0 1.768.02 1.768.02z"/></g><g fill="#fff"><path d="M7.245 22.965h10.569s-2.344-5.324-1.748-10.212c.596-4.887 4.45-7.112 6.635-7.35 2.186-.239 3.378 1.112 3.378 1.112l.476-.715s-3.139-3.179-7.112-2.821c-3.973.357-6.715 2.98-8.424 6.159-1.708 3.178-2.702 5.403-3.377 8.741-.676 3.338-.397 5.086-.397 5.086zM5.139 17.64l2.066.16-.358 2.066-1.947-.239.239-1.986zM8.397 13.27l.556-1.55-1.828-.715-.596 1.669 1.868.596zM10.98 7.946l1.072-1.272-1.39-.914-1.113 1.232 1.43.954zM13.8 3.019l.954 1.152 1.312-.755-.954-1.073-1.311.676zM18.45 1.707l.238 1.153 1.63-.04-.16-1.033-1.708-.08z"/><path d="M23.973 2.94l-.04.714 1.113.596.238-.357-1.311-.954zM23.734 5.999v.596l1.073.119v-.477l-1.073-.238zM20.317 6.515l.517.954.755-.596-.16-.636-1.112.278zM18.688 7.747l.795 1.192-.477.834-1.152-1.271.834-.755zM17.099 11.045l-.517 1.033 1.351 1.152.318-1.311-1.152-.874zM16.542 14.66l-.08 1.391 1.67.716-.08-1.312-1.51-.794zM17.02 19.588l.397 1.43 2.105.12-.754-1.55h-1.749z"/></g><path d="M4.131 31.63l.001-.088.002-.253a1973.22 1973.22 0 0 0 .022-4.404c.015-3.566.024-7.148.024-10.513 0-1.734-.015-3.248-.047-5.366-.098-6.474-.05-7.707.49-8.87C5.164.967 6.183.671 9.302.671h18.603l-.304-.304v21.486c0 .659.008 1.228.025 2.186.066 3.694-.016 4.744-.612 5.718-.697 1.138-2.198 1.635-5.22 1.635-1.705 0-3.712-.004-5.958-.011a3758.87 3758.87 0 0 1-11.527-.055l-.357-.002h-.124l.302.305zm-.61.3l.304.001.124.001a2690.177 2690.177 0 0 0 6.193.034c1.971.009 3.886.017 5.693.023 2.247.007 4.254.011 5.96.011 3.212 0 4.902-.56 5.739-1.926.686-1.12.77-2.202.7-6.046-.016-.955-.024-1.52-.024-2.175V.063H9.304c-3.345 0-4.552.35-5.233 1.817-.34.733-.505 1.747-.564 3.315-.046 1.208-.042 1.874.018 5.82.032 2.116.047 3.627.047 5.357a2522.722 2522.722 0 0 1-.047 14.913l-.001.254-.003.39z" fill="#5e000e"/></svg>