<svg viewBox="0 0 500 500" xmlns="http://www.w3.org/2000/svg"><circle cx="250" cy="250" r="250" fill="#f4f1f0"/><path d="M270.052 341.998l3.358 7.183s0 2.105-1.405 2.105h-80.49c-1.399 0-1.747-2.105-1.747-2.105l3.353-7.183h76.931zm-.162-15.251h-76.97v13.493h76.97v-13.493zm-153.039-34.549V166.135h223.253v14.366h14.643v-24.777c0-3.857-3.152-7.01-7.01-7.01h-237.95c-3.857 0-7.009 3.152-7.009 7.01v159.859c0 4.318 3.152 7.872 7.009 7.872h188.107v-31.256H116.851z" fill="#675f58"/><path d="M380.339 188.911h-57.156c-9.294 0-16.89 7.601-16.89 16.878v128.602c0 9.288 7.596 16.895 16.89 16.895h57.156c9.288 0 16.884-7.606 16.884-16.895V205.789c0-9.277-7.596-16.878-16.884-16.878zm-38.971 4.931c0-.564.934-1.037 2.072-1.037h16.64c1.14 0 2.072.472 2.072 1.037v.526c0 .564-.933 1.037-2.072 1.037h-16.64c-1.139 0-2.072-.472-2.072-1.037v-.526zm12.343 6.115a1.955 1.955 0 0 1-1.953 1.948 1.955 1.955 0 0 1-1.953-1.948c0-1.085.879-1.959 1.953-1.959s1.953.874 1.953 1.959zm8.441 142.746a2.084 2.084 0 0 1-2.072 2.083h-16.64a2.084 2.084 0 0 1-2.072-2.083v-1.036c0-1.14.934-2.067 2.072-2.067h16.64c1.14 0 2.072.928 2.072 2.067v1.036zm28.066-8.311h-75.716V205.789h75.716v128.603z" fill="#ff931e"/></svg>