<svg xmlns="http://www.w3.org/2000/svg" width="32" height="32" viewBox="0 0 32 32" preserveAspectRatio="xMidYMid"><path d="M27.57 17.792a6.629 6.629 0 0 0-2.9.672c-.3-.59-.597-1.117-.65-1.503-.059-.45-.129-.725-.059-1.263.07-.538.386-1.304.38-1.362-.005-.059-.07-.334-.713-.34-.643-.006-1.199.123-1.263.293-.064.17-.187.555-.27.953-.11.585-1.286 2.673-1.958 3.766-.217-.427-.404-.801-.445-1.1-.058-.45-.128-.724-.058-1.262s.386-1.305.38-1.363c-.006-.059-.07-.333-.714-.34-.643-.005-1.198.124-1.263.293-.064.17-.134.567-.269.953-.134.386-1.696 3.872-2.105 4.773-.21.462-.392.83-.52 1.081 0 0-.006.018-.024.047-.111.217-.175.334-.175.334v.005c-.088.158-.182.305-.228.305-.036 0-.1-.422.011-.995.234-1.21.79-3.093.784-3.158 0-.035.105-.362-.363-.532-.456-.17-.62.111-.66.111-.041 0-.07.1-.07.1s.508-2.117-.972-2.117c-.924 0-2.198 1.011-2.83 1.924-.398.216-1.246.678-2.152 1.175-.345.193-.702.386-1.035.567-.024-.023-.047-.052-.07-.076-1.79-1.912-5.1-3.263-4.96-5.83.053-.936.375-3.392 6.357-6.375 4.924-2.427 8.843-1.754 9.521-.263.97 2.129-2.1 6.082-7.187 6.655-1.942.217-2.96-.532-3.217-.813-.269-.292-.31-.31-.41-.251-.163.088-.058.35 0 .503.153.398.779 1.1 1.837 1.444.936.304 3.21.474 5.965-.59 3.082-1.193 5.492-4.51 4.784-7.287-.708-2.819-5.386-3.749-9.813-2.176-2.632.936-5.486 2.41-7.538 4.328-2.44 2.28-2.825 4.263-2.667 5.094.567 2.947 4.632 4.865 6.257 6.287l-.222.122c-.813.404-3.912 2.024-4.684 3.737-.878 1.942.14 3.334.813 3.521 2.087.579 4.234-.462 5.386-2.181 1.152-1.72 1.011-3.954.48-4.977a.122.122 0 0 0-.024-.035l.637-.375c.416-.245.825-.473 1.176-.66-.199.543-.345 1.193-.415 2.128-.088 1.1.362 2.527.953 3.088.263.246.573.252.772.252.69 0 1-.573 1.345-1.252.421-.83.801-1.795.801-1.795s-.474 2.608.813 2.608c.468 0 .942-.608 1.152-.918v.006s.012-.018.035-.059l.076-.123v-.011c.187-.328.608-1.07 1.234-2.304.807-1.591 1.585-3.58 1.585-3.58s.07.486.31 1.293c.14.474.433.994.667 1.497-.187.263-.304.41-.304.41l.005.005c-.152.2-.315.415-.497.626-.637.76-1.397 1.632-1.503 1.883-.122.298-.093.515.14.69.17.129.474.146.784.129.573-.041.977-.181 1.176-.27.31-.11.672-.28 1.012-.531.625-.462 1.005-1.123.97-1.995-.017-.48-.175-.959-.368-1.409.058-.082.111-.164.17-.246.988-1.444 1.754-3.029 1.754-3.029s.07.485.31 1.292c.117.41.357.854.567 1.287-.93.754-1.503 1.632-1.707 2.205-.369 1.064-.082 1.544.462 1.655.245.053.596-.064.853-.176a3.89 3.89 0 0 0 1.082-.555c.626-.462 1.228-1.105 1.193-1.977a3.737 3.737 0 0 0-.269-1.17c.79-.327 1.807-.508 3.106-.356 2.783.327 3.333 2.064 3.228 2.795-.105.731-.69 1.129-.883 1.252-.193.123-.258.163-.24.251.023.129.117.123.28.1.229-.041 1.463-.591 1.515-1.936.088-1.72-1.55-3.597-4.444-3.58zm-21.475 7.24c-.924 1.006-2.21 1.386-2.766 1.064-.596-.345-.362-1.83.772-2.895.69-.649 1.58-1.251 2.17-1.62.134-.081.333-.198.573-.345l.064-.035.14-.087c.416 1.52.018 2.86-.953 3.918zm6.726-4.573c-.322.783-.994 2.79-1.404 2.678-.35-.094-.567-1.614-.07-3.117.251-.754.784-1.655 1.094-2.006.503-.561 1.058-.749 1.193-.52.17.298-.614 2.473-.813 2.965zm5.55 2.655c-.135.07-.264.117-.322.082-.041-.024.058-.117.058-.117s.696-.749.971-1.088c.158-.199.345-.433.544-.696v.076c0 .895-.865 1.497-1.251 1.743zm4.28-.977c-.099-.07-.081-.304.252-1.035.129-.287.433-.766.953-1.228.059.187.1.368.094.538-.006 1.128-.813 1.55-1.299 1.725z" fill="#cd6799"/></svg>