<svg xmlns="http://www.w3.org/2000/svg" width="32" height="32"><defs><clipPath id="a"><path d="M0 1178.69V0h6000.85v1178.69z"/></clipPath></defs><g clip-path="url(#a)" transform="matrix(.02706 0 0 -.02706 2.667 31.97)"><path d="M840.719 105.18v315.511h105.164V0H0v420.691h105.164V105.18h735.555" fill="#bcbbbc"/><path d="M210.445 210.359h525.821v105.164H210.445zm471.266 968.331l-84.383-62.76 313.817-421.914 84.382 62.761zM420.879 929.949l404.047-336.504 67.301 80.813L488.18 1010.76zM288.973 696.102l476.664-221.993 44.398 95.332-476.664 221.993zm-68.086-246.391l514.582-108.149 21.629 102.918-514.582 108.149-21.629-102.918" fill="#f48023"/></g></svg>