<svg xmlns="http://www.w3.org/2000/svg" width="32" height="32" viewBox="0 0 32 32" preserveAspectRatio="xMidYMid"><path d="M0 15.551v-.401a59.62 59.62 0 0 0 4.941-4.757l.737.494a21.918 21.918 0 0 1-3.192 4.294c1.841 2.316 1.933 2.44 3.13 4.417l-.675.494c-.675-.71-.982-1.05-1.933-1.915-1.105-1.05-.983-.896-2.578-2.255l-.43-.37zm6.263 7.18l1.312-.655c2.458 3.728 6.35 6.308 9.464 6.308 2.991 0 5.122-2.13 5.122-5.161 0-2.99-1.72-4.506-6.679-5.858-5.9-1.597-8.153-3.768-8.153-7.987 0-4.22 3.278-7.62 7.293-7.62 1.106 0 1.024 0 3.606.779.368.123.86.205 1.065.205.287 0 .696-.123 1.065-.287l1.393-.696 2.54 7.086-1.31.86c-2.377-3.932-5.41-6.185-8.359-6.185-2.581 0-4.507 1.925-4.507 4.547 0 2.58 1.762 4.26 5.408 5.202 1.762.45 3.032.82 3.647.983 3.688 1.106 5.9 4.015 5.9 7.66 0 4.63-3.564 8.234-8.071 8.234-1.394 0-2.09-.164-3.81-.942-.738-.328-1.19-.45-1.476-.45-.41 0-.696.122-1.188.409l-1.557.983-2.705-7.415zm20.09-3.133c1.196-2.008 1.258-2.1 3.1-4.417a21.92 21.92 0 0 1-3.193-4.294l.768-.494c1.411 1.575 3.283 3.367 4.91 4.757v.401l-1.565 1.298c-.583.494-2.271 2.1-3.376 3.243l-.644-.494z" fill="#ff0080"/></svg>